G04 #@! TF.FileFunction,Soldermask,Top*
%FSLAX46Y46*%
G04 Gerber Fmt 4.6, Leading zero omitted, Abs format (unit mm)*
G04 Created by KiCad (PCBNEW (2014-11-02 BZR 5250)-product) date 2/2/2015 7:49:39 PM*
%MOMM*%
G01*
G04 APERTURE LIST*
%ADD10C,0.100000*%
%ADD11R,1.500000X1.250000*%
%ADD12R,1.198880X1.198880*%
%ADD13C,1.397000*%
%ADD14R,1.500000X1.300000*%
%ADD15R,1.300000X1.500000*%
%ADD16R,1.000000X0.220000*%
%ADD17R,0.220000X1.000000*%
%ADD18C,1.500000*%
%ADD19R,1.500000X0.800000*%
%ADD20R,0.800000X1.500000*%
%ADD21R,1.500000X0.700000*%
%ADD22C,1.506220*%
G04 APERTURE END LIST*
D10*
D11*
X144023400Y-76250800D03*
X141523400Y-76250800D03*
X144226600Y-83362800D03*
X141726600Y-83362800D03*
X144226600Y-81178400D03*
X141726600Y-81178400D03*
D12*
X182854600Y-95321120D03*
X182854600Y-93223080D03*
X186461400Y-95321120D03*
X186461400Y-93223080D03*
D13*
X168447400Y-96956400D03*
X168447400Y-94416400D03*
X168457400Y-91876400D03*
D14*
X144225000Y-78486000D03*
X141525000Y-78486000D03*
D15*
X182854600Y-91037400D03*
X182854600Y-88337400D03*
X186461400Y-91037400D03*
X186461400Y-88337400D03*
D16*
X147738200Y-77072800D03*
X147738200Y-77572800D03*
X147738200Y-78072800D03*
X147738200Y-78572800D03*
X147738200Y-79072800D03*
X147738200Y-79572800D03*
X147738200Y-80072800D03*
X147738200Y-80572800D03*
X147738200Y-81072800D03*
X147738200Y-81572800D03*
X147738200Y-82072800D03*
X147738200Y-82572800D03*
X147738200Y-83072800D03*
X147738200Y-83572800D03*
X147738200Y-84072800D03*
X147738200Y-84572800D03*
D17*
X149488200Y-86322800D03*
X149988200Y-86322800D03*
X150488200Y-86322800D03*
X150988200Y-86322800D03*
X151488200Y-86322800D03*
X151988200Y-86322800D03*
X152488200Y-86322800D03*
X152988200Y-86322800D03*
X153488200Y-86322800D03*
X153988200Y-86322800D03*
X154488200Y-86322800D03*
X154988200Y-86322800D03*
X155488200Y-86322800D03*
X155988200Y-86322800D03*
X156488200Y-86322800D03*
X156988200Y-86322800D03*
D16*
X158738200Y-84572800D03*
X158738200Y-84072800D03*
X158738200Y-83572800D03*
X158738200Y-83072800D03*
X158738200Y-82572800D03*
X158738200Y-82072800D03*
X158738200Y-81572800D03*
X158738200Y-81072800D03*
X158738200Y-80572800D03*
X158738200Y-80072800D03*
X158738200Y-79572800D03*
X158738200Y-79072800D03*
X158738200Y-78572800D03*
X158738200Y-78072800D03*
X158738200Y-77572800D03*
X158738200Y-77072800D03*
D17*
X156988200Y-75322800D03*
X156488200Y-75322800D03*
X155988200Y-75322800D03*
X155488200Y-75322800D03*
X154988200Y-75322800D03*
X154488200Y-75322800D03*
X153988200Y-75322800D03*
X153488200Y-75322800D03*
X152988200Y-75322800D03*
X152488200Y-75322800D03*
X151988200Y-75322800D03*
X151488200Y-75322800D03*
X150988200Y-75322800D03*
X150488200Y-75322800D03*
X149988200Y-75322800D03*
X149488200Y-75322800D03*
D18*
X182235400Y-85467400D03*
D19*
X182485400Y-82967400D03*
X182485400Y-81767400D03*
X182485400Y-80567400D03*
X182485400Y-79367400D03*
X182485400Y-78167400D03*
X182485400Y-76967400D03*
X182485400Y-75767400D03*
X182485400Y-74567400D03*
X193485400Y-74567400D03*
X193485400Y-75767400D03*
X193485400Y-76967400D03*
X193485400Y-78167400D03*
X193485400Y-79367400D03*
X193485400Y-80567400D03*
X193485400Y-81767400D03*
X193485400Y-82967400D03*
D20*
X184985400Y-85217400D03*
X186185400Y-85217400D03*
X187385400Y-85217400D03*
X188585400Y-85217400D03*
X189785400Y-85217400D03*
X190985400Y-85217400D03*
D18*
X193735400Y-85467400D03*
D21*
X164979200Y-84098200D03*
X164979200Y-82998200D03*
X164979200Y-81898200D03*
X164979200Y-80798200D03*
X164979200Y-79698200D03*
X164979200Y-78598200D03*
X164979200Y-77498200D03*
X164979200Y-76398200D03*
D22*
X159496600Y-92406000D03*
X159496600Y-94946000D03*
X156956600Y-92406000D03*
X156956600Y-94946000D03*
X154416600Y-92406000D03*
X154416600Y-94946000D03*
X151876600Y-92406000D03*
X151876600Y-94946000D03*
X149336600Y-92406000D03*
X149336600Y-94946000D03*
X146796600Y-92406000D03*
X146796600Y-94946000D03*
X144256600Y-92406000D03*
X144256600Y-94946000D03*
D13*
X171013600Y-91587000D03*
X173553600Y-91587000D03*
X176093600Y-91597000D03*
X178633600Y-91597000D03*
M02*
