M48
;DRILL file {kicad (2014-11-02 BZR 5250)-product} date 2/2/2015 7:50:52 PM
;FORMAT={-:-/ absolute / inch / decimal}
FMAT,2
INCH,TZ
T1C0.025
T2C0.032
T3C0.039
%
G90
G05
M72
T1
X5.58Y-3.354
X5.679Y-3.361
X5.737Y-3.002
X5.7495Y-3.088
X5.755Y-3.142
X5.779Y-3.482
X5.8795Y-3.489
X5.905Y-2.895
X5.925Y-3.092
X5.979Y-3.13
X5.979Y-3.488
X6.043Y-3.08
X6.043Y-3.488
X6.093Y-3.128
X6.127Y-3.486
X6.183Y-3.178
X6.197Y-3.486
X6.2595Y-3.4495
X6.332Y-3.041
X6.346Y-3.263
X6.356Y-3.309
X6.381Y-3.124
X6.428Y-3.0935
X6.523Y-3.718
X6.7485Y-3.817
X6.9328Y-3.7328
X6.94Y-2.838
X6.94Y-2.94
X7.0326Y-3.7318
X7.0635Y-2.936
X7.082Y-3.126
X7.0935Y-3.3645
X7.117Y-3.172
X7.33Y-3.4135
X7.472Y-3.426
X7.5185Y-3.4795
X7.6275Y-3.436
X7.696Y-2.935
X7.697Y-3.321
X7.702Y-3.22
T2
X6.6318Y-3.7172
X6.6318Y-3.8172
X6.6322Y-3.6172
X6.7328Y-3.6058
X6.8328Y-3.6058
X6.9328Y-3.6062
X7.0328Y-3.6062
T3
X5.6794Y-3.638
X5.6794Y-3.738
X5.7794Y-3.638
X5.7794Y-3.738
X5.8794Y-3.638
X5.8794Y-3.738
X5.9794Y-3.638
X5.9794Y-3.738
X6.0794Y-3.638
X6.0794Y-3.738
X6.1794Y-3.638
X6.1794Y-3.738
X6.2794Y-3.638
X6.2794Y-3.738
T0
M30
